<?xml version="1.0" ?><svg data-name="Social Media Icons" id="Social_Media_Icons" viewBox="0 0 512 512" xmlns="http://www.w3.org/2000/svg"><defs><style>.cls-1{fill:#586cc6;}</style></defs><g id="Discord"><path class="cls-1" d="M442.53,0H69.47A53.87,53.87,0,0,0,15.6,53.87V407.65a53.87,53.87,0,0,0,53.87,53.87H374.23a5.81,5.81,0,0,0,5.57-7.47l-6.61-22.25a5.81,5.81,0,0,1,9.35-6.07l41.85,35.79.16.13L477,509a11.62,11.62,0,0,0,19.41-8.63V53.87A53.87,53.87,0,0,0,442.53,0ZM406.16,311.49c-30.64,38.18-74.24,38.58-81.15,38.39a2,2,0,0,1-1.5-.75l-15.32-19.42a2,2,0,0,1,.82-3.07c16.21-6.4,26.76-13.11,33.39-18.43a2,2,0,0,0-2-3.34c-30.71,13.83-89.69,22.13-93.86,22.7a1.77,1.77,0,0,1-.46,0c-4.17-.57-63.15-8.87-93.86-22.7a2,2,0,0,0-2,3.34c6.63,5.32,17.18,12,33.39,18.43a2,2,0,0,1,.82,3.07L169,349.13a2,2,0,0,1-1.5.75c-6.91.19-50.52-.21-81.15-38.39a2,2,0,0,1-.44-1.29c.18-9,2.88-99.19,39.68-153.34a1.85,1.85,0,0,1,.38-.41c3-2.35,35.64-27.5,76.14-27.4a2,2,0,0,1,1.36.54,2,2,0,0,1-.85,3.37c-9.54,2.49-36.43,10.19-55.06,22.07a2,2,0,0,0,1.78,3.52c18.66-7.23,55-18.69,96.9-18.37,41.94-.32,78.24,11.14,96.9,18.37A2,2,0,0,0,345,155c-18.63-11.88-45.52-19.58-55.06-22.07a2,2,0,0,1-.85-3.37h0a2,2,0,0,1,1.36-.54c40.5-.1,73.17,25,76.14,27.4a1.85,1.85,0,0,1,.38.41c36.8,54.15,39.5,144.37,39.68,153.34A2,2,0,0,1,406.16,311.49Z"/><circle class="cls-1" cx="196.44" cy="254.86" r="27.98"/><circle class="cls-1" cx="296.52" cy="254.86" r="27.98"/></g></svg>