<svg xmlns="http://www.w3.org/2000/svg" xml:space="preserve" style="fill-rule:evenodd;clip-rule:evenodd;stroke-linejoin:round;stroke-miterlimit:2" viewBox="0 0 192 192"><path d="M50 36c9.616.166 18.689 4.252 27.141 8.625 5.339 2.29 11.262 2.175 16.984 2.5 2.315.146 4.63.294 6.945.445l3.087.18c2.682.236 5.214.682 7.843 1.25 12.872 1.482 24.223-5.852 35-12l1-1c2.671-.141 5.324-.042 8 0l4 8 1.547 2.727c1.776 4.001 2.316 7.713 2.891 12.023C166.015 70.32 166.015 70.32 172 80v3l3 1c1.098 1.602 1.098 1.602 2.062 3.625l.973 1.977c3.167 7.871 3.337 15.349 3.336 23.696.004 2.262.04 4.523.078 6.786.006 1.452.01 2.905.012 4.357l.025 3.96c-1.006 7.448-6.068 11.238-11.693 15.576-10.908 7.902-19.659 13.191-33.313 13.156l-2.477.003c-1.725 0-3.451-.001-5.176-.006-2.62-.005-5.24 0-7.86.007l-5.049-.004-2.346.006c-3.717-.016-7.299-.189-10.983-.703-3.923-.477-5.054.082-8.589 1.564-3.49.478-6.983.646-10.5.812l-2.84.194c-5.175.26-8.385.276-12.66-3.006-1.285 0-2.569.015-3.853.048-36.915.941-36.915.941-49.147-9.048-4.185-4.383-5.892-9.287-6.178-15.304.192-2.904.884-4.699 2.116-7.317 2.322-5.521 2.817-10.63 3.124-16.567C14.889 92.845 14.889 92.845 21 87c1.19-2.599 1.19-2.599 2-5 1.114 3.342.845 4.348.062 7.688-.955 4.91-1.32 9.638-1.374 14.624l-.051 3.989c.389 3.961 1.249 6.348 3.363 9.699l3 2v2l2.312.75a794.504 794.504 0 0 1 9.25 3.188l2.754.964C45 128 45 128 47.418 129.598 52.522 132.37 58.375 131.658 64 131c3.463-1.156 6.111-2.79 9-5l2.184-1.645c5.969-4.852 9.645-9.447 10.566-17.293.099-1.353.189-2.707.25-4.062h1l.516 2.379c2.695 11.731 2.695 11.731 11.046 19.996 5.427 3.005 10.308 3.607 16.438 3.625l2.121.008 1.941-.008c3.073 0 5.845.194 8.876.562 7.35.781 12.758.422 19.062-3.562l3.008-1.578 3.117-1.672 3.133-1.641c3.922-3.016 5.227-6.283 6.109-11.121.256-2.124.406-4.226.508-6.363l.125-2.258c.211-5.746-.674-10.063-3-15.367v-2h-2c-1.551-1.609-1.551-1.609-3.312-3.75-2.676-3.168-5.427-5.681-8.688-8.25v-2l-2.219-.773c-2.913-1.285-4.843-2.823-7.281-4.852-5.211-3.758-9.07-3.927-15.359-3.555-4.164.239-8.018-.261-12.141-.82v2l-1.848.699c-2.758 1.667-3.319 3.181-4.59 6.113C100.573 73.086 98.387 75.702 95 79a73.448 73.448 0 0 0-3 7c-.726 1.814-1.456 3.627-2.188 5.438-.605 1.52-1.209 3.041-1.812 4.562h-1l-.113-2.598c-.459-7.979-1.012-13.507-5.825-20.027-9.179-7.118-23.13-11.17-34.742-10.797C40.474 63.641 35.859 67.658 32 72c.647-3.334 1.902-5.748 3.688-8.625l1.628-2.668a508.926 508.926 0 0 1 3.274-5.195c3.311-5.283 5.68-10.438 7.648-16.36C49 37 49 37 50 36Z" style="fill:#36147b;fill-rule:nonzero"/><path d="M109 60c21.738-1.298 21.738-1.298 28.062 3.312A228.584 228.584 0 0 1 141 67l2.746 1.605L146 70v2l3 1v2l1.688.688c2.974 1.688 5.032 3.779 7.312 6.312v2h2c5.071 10.077 4.723 19.798 2.449 30.621-2.542 6.688-9.461 9.271-15.449 12.379l-2.648 1.652c-7.637 4.377-18.808 2.093-27.258 1.479-1.77-.111-3.544-.152-5.317-.178-7.551-.217-13.175-2.863-18.777-7.953-3.015-4.349-4.841-8.854-6-14l-1.25 3.688c-3.235 8.498-11.067 15.864-19.348 19.652-5.791 1.591-12.856 1.987-18.543-.141-1.659-1.004-3.26-2.102-4.859-3.199a82.258 82.258 0 0 0-4.562-1.562c-3.689-1.15-7.027-2.601-10.438-4.438v-2l-1.812-.625c-3.106-1.952-3.803-4-5.188-7.375-1.261-11.261-.892-26.432 6.062-35.75A200.66 200.66 0 0 1 30 73l2-3h2l2.312-2.312c3.961-3.961 6.612-5.856 12.25-6.063C60.282 62.024 74.254 65.955 83 74c2.981 3.932 3.598 7.459 4.188 12.312l.48 3.801L88 93l.918-2.633C93.226 78.516 93.226 78.516 98 74h2l.812-2.688c1.126-3.14 2.201-5.637 4.188-8.312 2.188-.812 2.188-.812 4-1v-2Z" style="fill:#fb79d4;fill-rule:nonzero"/><path d="M50 36c9.616.166 18.689 4.252 27.141 8.625 5.339 2.29 11.262 2.175 16.984 2.5 2.315.146 4.63.294 6.945.445l3.087.18c2.682.236 5.214.682 7.843 1.25 12.872 1.482 24.223-5.852 35-12l1-1c2.671-.141 5.324-.042 8 0 .974 1.947 1.946 3.895 2.91 5.848.894 1.766 1.858 3.496 2.84 5.214 1.485 3.49 1.475 6.183 1.25 9.938-2-2-2-2-3-5 .308 2.671.645 5.334 1 8l.371 2.992c.802 6.604.802 6.604 3.817 12.383C167 78 167 78 166.875 81.25 166 84 166 84 164 86c-.243 2.211-.243 2.211-.125 4.625l.055 2.477L164 95c-2.313-2.313-2.496-3.479-3.125-6.625l-.508-2.477L160 84h-2c-1.551-1.609-1.551-1.609-3.312-3.75-2.676-3.168-5.427-5.681-8.688-8.25v-2l-2.219-.773c-2.913-1.285-4.843-2.823-7.281-4.852-5.211-3.758-9.07-3.927-15.359-3.555-4.164.239-8.018-.261-12.141-.82v2l-1.848.699c-2.758 1.667-3.319 3.181-4.59 6.113C100.573 73.086 98.387 75.702 95 79a73.448 73.448 0 0 0-3 7c-.726 1.814-1.456 3.627-2.188 5.438-.605 1.52-1.209 3.041-1.812 4.562h-1l-.113-2.598c-.459-7.979-1.012-13.507-5.825-20.027-9.179-7.118-23.13-11.17-34.742-10.797C40.474 63.641 35.859 67.658 32 72c.647-3.334 1.902-5.748 3.688-8.625l1.628-2.668a508.926 508.926 0 0 1 3.274-5.195c3.311-5.283 5.68-10.438 7.648-16.36C49 37 49 37 50 36Z" style="fill:#452090;fill-rule:nonzero"/><path d="M152 40c3.284 2.99 4.381 5.914 6 10l2-5c2.946 4.419 3.099 6.678 3 12-2-2-2-2-3-5 .308 2.671.645 5.334 1 8l.371 2.992c.802 6.604.802 6.604 3.817 12.383C167 78 167 78 166.875 81.25 166 84 166 84 164 86c-.243 2.211-.243 2.211-.125 4.625l.055 2.477L164 95c-2.313-2.313-2.496-3.479-3.125-6.625l-.508-2.477L160 84h-2c-1.551-1.609-1.551-1.609-3.312-3.75-2.676-3.168-5.427-5.681-8.688-8.25v-2l-2.219-.773c-2.913-1.285-4.843-2.823-7.281-4.852-5.211-3.758-9.07-3.927-15.359-3.555-4.164.239-8.018-.261-12.141-.82v2l-1.875.75c-2.476 1.456-3.076 2.628-4.125 5.25l-1-2c.688-2.062.688-2.062 2-4 2.125-.75 2.125-.75 4-1v-2h8v-5l2.746-.516C131.22 51.003 140.946 46.083 152 40Z" style="fill:#46208e;fill-rule:nonzero"/><path d="M155 86h2c.674 1.664 1.341 3.33 2 5l1.812 3.438c2.489 6.507-.108 14.398-2.652 20.615-1.336 2.242-2.416 3.011-4.68 4.271l-2.099 1.178-2.193 1.186-2.159 1.22c-5.267 2.909-9.596 4.238-15.654 4.217l-2.289.008C127 127 127 127 124 126a101.698 101.698 0 0 0-5.062 0c-3.83.025-7.618-.026-11.438-.312l-2.406-.176c-2.544-.622-3.371-1.585-5.094-3.512l-3.188-2.062L94 118v-2c1.355.117 2.709.244 4.062.375l2.286.211C103 117 103 117 106.34 118.02c8.607 2.305 17.758 2.194 25.66-2.02h4v-2l2.012-.918c6.998-3.32 12.458-6.397 15.429-13.969C154.574 94.83 154.769 90.41 155 86Z" style="fill:#fef7fd;fill-rule:nonzero"/><path d="m32 76 1 2-1.438 2.75C28.981 86.647 28.855 92.73 30 99c3.058 7.112 7.7 13.089 15 16 2.695.725 2.695.725 5.312 1.125 4.596.783 4.596.783 5.688 1.875 7.048.85 14.022 1.495 21 0-3.8 5.393-7.561 8.289-14 10-6.821.78-12.008.541-18-3-1.345-.37-2.7-.702-4.062-1-3.47-.808-5.979-1.951-8.938-4l-1.824-1.234C25.15 115.299 25.15 115.299 24 113c-.595-7.259.007-14.303 1.312-21.438l.357-2.004C26.698 84.361 28.206 79.794 32 76Z" style="fill:#fef3fc;fill-rule:nonzero"/><path d="M149.848 35.902 156 36c4.46 7.37 4.46 7.37 3.75 12l-.75 3c-2.706-1.353-2.961-2.81-4.125-5.563l-1.07-2.504L153 41l-3.148 1.61C126.657 54.386 126.657 54.386 116 54l-3-1a233.321 233.321 0 0 0-7.527-.325c-1.531-.059-3.061-.119-4.592-.18a506.27 506.27 0 0 0-7.187-.243C84.293 52 76.892 51.39 68.6 46.45 64.345 44.077 59.726 43.06 55 42l-1-4c6.67-.465 10.498.9 16.375 3.875 10.96 5.132 22.022 5.604 33.973 5.954 2.633.17 5.077.608 7.652 1.171 12.873 1.481 24.223-5.852 35-12 1-1 1-1 2.848-1.098Z" style="fill:#1e0958;fill-rule:nonzero"/><path d="m39 65 1 3h-2l-.688 2.375C35.659 73.682 34.334 73.718 31 75c-.617 1.83-.617 1.83-1 4a804.02 804.02 0 0 1-1.438 4.562C25.772 92.919 23.418 103.225 25 113c1.789 2.29 1.789 2.29 4 4l2.438 2.125c4.221 3.089 8.567 4.197 13.597 5.313C47 125 47 125 48.895 126.035c5.207 2.386 11.749 1.78 17.043-.051 4.051-1.955 6.531-3.187 9.062-6.984l-2.75.562c-6.335.909-13.859 1.032-19.25-2.562a75.305 75.305 0 0 0-5-1v-1h8v2l1.758-.254c4.665-.608 8.596-.818 13.242.254l1-2 4 1-1-3c2.972 1.125 5.334 2.223 8 4-5.179 6.562-10.908 12.303-19 15-8.266.633-14.133.713-21-4a82.258 82.258 0 0 0-4.562-1.562c-3.689-1.15-7.027-2.601-10.438-4.438v-2l-1.812-.625c-3.106-1.952-3.803-4-5.188-7.375-1.261-11.261-.892-26.432 6.062-35.75A200.66 200.66 0 0 1 30 73l2-3h2a142.011 142.011 0 0 0 5-5Z" style="fill:#ea6ac9;fill-rule:nonzero"/><path d="m157 82 1 2h2c5.071 10.077 4.723 19.798 2.449 30.621-2.542 6.688-9.461 9.271-15.449 12.379l-2.648 1.652c-7.637 4.377-18.808 2.093-27.258 1.479-1.77-.111-3.544-.152-5.317-.178-7.57-.218-13.143-2.881-18.777-7.953-4.372-5.871-5.652-11.804-6-19 2.519 3.778 4.132 7.814 5.805 12.027 1.543 2.548 3.286 3.562 5.82 5.098 2.477 1.508 2.477 1.508 4.375 2.875v2l1.88-.016c2.811-.021 5.622-.034 8.432-.046l2.959-.026 2.842-.01 2.619-.016C124 125 124 125 127 126c10.096 1.054 17.589-2.426 25.934-7.793C155 117 155 117 157 117c4.195-13.098 4.195-13.098 1-26-2.143-5.571-2.143-5.571-1-9Z" style="fill:#e86dca;fill-rule:nonzero"/><path d="m60.191 65.172 2.371.578 2.38.547C67 67 67 67 69 69v3l2.375.375C74 73 74 73 76 75c.3 2.496.3 2.496.312 5.438l.051 2.933C76 86 76 86 74.683 87.828 71.86 89.794 69.344 89.278 66 89c-5.49-1.041-8.555-2.542-12-7-1.686-4.944-.89-10.18 1-15 3-2 3-2 5.191-1.828Z" style="fill:#fef8fd;fill-rule:nonzero"/><path d="M177 95h2c2.327 3.655 2.322 7.198 2.336 11.398l.02 2.16c.01 1.504.015 3.009.015 4.513.004 2.29.04 4.577.078 6.867.006 1.466.01 2.932.012 4.398l.043 2.055c-.047 4.984-1.434 7.748-4.504 11.609-6.255 5.965-13.671 10.488-21 15l-3 2c-2.801.205-4.475.263-7-1v-2l3.25-1.375c2.055-.874 4.023-1.769 6-2.813C157 147 157 147 160 147l1-3c4.333-3 4.333-3 7-3v-2c1.461-1.508 1.461-1.508 3.375-3.125l1.898-1.633C175 133 175 133 177 133V95Z" style="fill:#1e0958;fill-rule:nonzero"/><path d="M131 64c2.997 1.281 5.742 2.625 8 5 .535 2.438.535 2.438 0 5-2.188 2.02-2.188 2.02-5 3.812l-2.812 1.833L129 81l-1.863-.938A146.264 146.264 0 0 0 122.812 78C121 77 121 77 120 75c-.355-3.836-.547-6.146 1.562-9.438 3.471-2.224 5.366-2.173 9.438-1.562Z" style="fill:#faeffd;fill-rule:nonzero"/><path d="M103 147h2c-.506 2.169-1 4-2 6l42 1-1 3c-5.123.025-10.246.043-15.369.055-1.74.005-3.479.012-5.219.02-2.513.013-5.025.018-7.537.023l-2.327.015c-3.709.001-7.274-.162-10.95-.678-3.896-.471-5.091.111-8.598 1.565-4.741.446-7.962.692-12-2l2.195-.332C92.043 154.381 97.37 152.831 103 147Z" style="fill:#16034c;fill-rule:nonzero"/><path d="M56 64c5.247-.242 9.198.453 14.125 2.25l3.57 1.266C76.962 68.983 79.327 70.64 82 73l-1 3-3 1 .105 2.047.083 2.703.105 2.672c-.357 3.14-.985 4.423-3.293 6.578-4.903.977-9.691.461-14.375-1.188C56.02 86.633 52.496 83.534 51 78l1-2c.226-1.704.409-3.413.562-5.125l.254-2.758L53 66h3v-2Zm-1 3c-.92 2.7-.92 2.7-1.375 5.812l-.586 3.145c-.059 4.61 1.976 6.794 4.738 10.297 2.945 2.313 5.076 2.443 8.785 2.684l3.442.277c2.935.021 2.935.021 4.871-1.367 1.538-2.527 1.559-4.403 1.563-7.348l.058-2.906c-.267-2.709-.267-2.709-2.336-4.438C71.968 71.764 71.968 71.764 69 72l-.062-1.812c-.835-2.588-.835-2.588-4.313-3.938-4.504-1.553-5.631-1.913-9.625.75Z" style="fill:#f190d6;fill-rule:nonzero"/><path d="M23 82c1.114 3.342.845 4.348.062 7.688-.977 4.948-1.259 9.663-1.25 14.687l-.001 2.053c.039 3.641.335 7.032 1.189 10.572l-3 1v-2l-3 1v-6h-3c.724-17.997.724-17.997 7-24 1.19-2.599 1.19-2.599 2-5Z" style="fill:#451a82;fill-rule:nonzero"/><path d="m13 125 .148 2.414c.231 8.142.231 8.142 2.852 15.586 6.328 4.37 13.626 6.201 21 8 1.398.388 2.794.783 4.188 1.188L44 153v1c-11.335.473-20.998-.526-30-8-4.271-4.826-5.055-10.711-5-17l1-3c2-1 2-1 3-1Z" style="fill:#1c0a53;fill-rule:nonzero"/><path d="M137 48c-1 2-1 2-3.695 3.07-8.736 2.687-15.083 3.599-23.957 1.438-3.149-.681-6.294-.985-9.5-1.262C98 51 98 51 96 50c-2.538-.232-5.08-.419-7.625-.562l-2.141-.131C84.49 49.201 82.745 49.1 81 49v-1c4.229-.029 8.458-.047 12.688-.062l3.63-.026 3.506-.01 3.222-.016c2.773.107 5.252.509 7.954 1.114 4.426.336 8.231.233 12.5-1.062 4.43-1.187 8.031-.688 12.5.062Z" style="fill:#16044f;fill-rule:nonzero"/><path d="M50 36c2.062.438 2.062.438 4 1l-2 1 1 3c-1.883 6.775-5.475 12.966-9 19l-1.5 2.875C40.669 65.47 38.752 66.456 36 68a89.814 89.814 0 0 0-4 4c.647-3.334 1.902-5.748 3.688-8.625l1.628-2.668a508.926 508.926 0 0 1 3.274-5.195c3.311-5.283 5.68-10.438 7.648-16.36C49 37 49 37 50 36Z" style="fill:#270f53;fill-rule:nonzero"/><path d="M178 136c-3.609 5.413-8.669 8.478-14 12l-2.922 2.004-2.89 1.934-2.645 1.777c-2.808 1.419-4.442 1.627-7.543 1.285l-2-1v-2l3.25-1.375c2.055-.874 4.023-1.769 6-2.813C157 147 157 147 160 147l1-3c4.333-3 4.333-3 7-3v-2c3.366-2.902 5.567-4.478 10-3Z" style="fill:#200c57;fill-rule:nonzero"/><path d="m39 65 1 3h-2l-.688 2.375C35.659 73.682 34.334 73.718 31 75c-.617 1.83-.617 1.83-1 4a804.02 804.02 0 0 1-1.438 4.562C25.399 94.201 24.732 103.971 25 115l-2-1c-2.193-30.223-2.193-30.223 4.562-38.562L30 73l2-3h2a142.011 142.011 0 0 0 5-5Z" style="fill:#de79c8;fill-rule:nonzero"/><path d="m160 51 2 4 1.5 2.562c1.374 3.149 1.883 5.46 2.375 8.813.763 4.829 2.225 8.045 5.102 11.969C172 80 172 80 172 83l3 1 1 8h-2l-.848-1.836c-2.238-4.677-4.531-8.737-7.777-12.789-4.799-6.591-7.127-16.25-5.937-24.355L160 51Z" style="fill:#18044f;fill-rule:nonzero"/><path d="M65 149h3l1.062 2.312c2.977 4.129 7.135 4.58 11.938 5.688v2c-5.431.276-8.479.324-13-3-2.401-1.2-3.894-1.115-6.57-1.098l-2.715.01-2.84.026-2.863.013c-2.338.012-4.675.028-7.012.049 2.615-2.568 3.945-2.996 7.672-3.293 1.36.02 2.719.055 4.078.105l2.113.042c1.713.035 3.425.089 5.137.146v-3Z" style="fill:#190551;fill-rule:nonzero"/><path d="M136 89c.883 3.452 1.183 5.473 0 8.875-2 2.125-2 2.125-5.625 2.5C127 100 127 100 126 99c.379-4.098.693-6.54 3-10 3.133-1.044 3.99-.934 7 0Z" style="fill:#fef2fc;fill-rule:nonzero"/><path d="m43 127 27 1c-4.186 4.186-7.02 4.196-12.75 4.312-6.045-.018-9.463-.665-14.25-4.312v-1Z" style="fill:#da59c4;fill-rule:nonzero"/><path d="M54 38c6.631-.491 12.186.611 18 4l1 3c-6.415.428-11.886-1.143-18-3l-1-4Z" style="fill:#17044f;fill-rule:nonzero"/><path d="m101 127 2.02.438c5.867 1.181 11.311 1.693 17.289 1.566 3.458-.005 6.821.383 10.253.773 3.822.349 7.603.285 11.438.223l-3 5-2-1v-2l-1.922.035c-6.868.067-13.717-.118-20.578-.41l-2.644-.094-2.512-.117-2.244-.095c-2.352-.357-4.038-1.157-6.1-2.319v-2Z" style="fill:#470d74;fill-rule:nonzero"/><path d="M40 99c2.875.125 2.875.125 6 1 1.938 2.375 1.938 2.375 3 5l-1 3c-3.375.188-3.375.188-7 0-2.148-3.222-2.294-4.278-2-8l1-1Z" style="fill:#fef6fd;fill-rule:nonzero"/><path d="M86 103h1l.551 2.414C88.87 110.976 90.111 116.047 93 121h-3v-4c-2.365.121-2.365.121-5 1a174.684 174.684 0 0 0-4 5h-3v2l-2-1 1.461-1.609 1.914-2.141 1.898-2.109c2.861-3.547 3.952-6.363 4.352-10.891l.227-2.422L86 103Z" style="fill:#651d86;fill-rule:nonzero"/><path d="m142 68-2 1v5h-1l-.062-2.25c-1.142-3.347-2.716-4.43-5.817-6.035-3.676-1.239-7.295-1.027-11.121-.715v-2l-4-2c10.741-1.551 15.667-.093 24 7Z" style="fill:#dd7cd2;fill-rule:nonzero"/><path d="m148 36 3 1h-2l-.125 1.875L148 41l-2.875.938c-3.333.74-3.333.74-4.563 3.687L139 48c-3.562.438-3.562.438-7 0l-2-2 1.545-.81c2.298-1.208 4.596-2.417 6.893-3.628l2.431-1.275 2.315-1.221 2.142-1.126c1.653-.829 1.653-.829 2.674-1.94Z" style="fill:#2a1a5d;fill-rule:nonzero"/><path d="M23 82c1.624 4.871-.435 8.801-2.562 13.312C18.657 99.88 18.284 104.14 18 109h-1c-2.739-13.009-2.739-13.009.047-17.801C18.316 89.755 19.657 88.375 21 87c1.305-2.712 1.305-2.712 2-5Z" style="fill:#230d55;fill-rule:nonzero"/><path d="M162 70c3 1 3 1 4 3h2c2.904 5.555 2.904 5.555 3.5 8.312L172 83l3 1 1 8h-2l-.848-1.836c-2.779-5.809-5.959-10.961-9.797-16.133C162 72 162 72 162 70Z" style="fill:#210f57;fill-rule:nonzero"/><path d="M178 136c-3.588 5.382-8.7 8.49-14 12l-1-3h2l1-4h2v-2c3.366-2.902 5.567-4.478 10-3Z" style="fill:#2c1b5c;fill-rule:nonzero"/><path d="M177 95h2c1.831 3.129 2.239 5.376 2.195 8.984l-.019 2.832-.051 2.934-.027 2.98c-.024 2.424-.057 4.847-.098 7.27h-3l.035-3.945c.01-1.727.019-3.453.027-5.18l.026-2.594c.017-4.548-.156-8.805-1.088-13.281Z" style="fill:#140346;fill-rule:nonzero"/><path d="M62 99c2.625-.188 2.625-.188 5 0 1.125 5.75 1.125 5.75 0 8h-6c-.625-2.312-.625-2.312-1-5l2-3Z" style="fill:#f176c6;fill-rule:nonzero"/><path d="M31 100h2c1.625 2 1.625 2 3 4l3-4 .75 3.375c.86 3.671.86 3.671 3.375 5.063L45 109l-5 1-1 3c-6.519-8.262-6.519-8.262-8-13Z" style="fill:#f17bca;fill-rule:nonzero"/><path d="m37 151 13 1-2 2 18 1v1c-3.333.029-6.667.047-10 .062l-2.832.026c-5.491.019-10.737-.275-16.168-1.088v-1l4-1-4-1v-1Z" style="fill:#4b3b79;fill-rule:nonzero"/><path d="M116 128c3.208-.029 6.417-.047 9.625-.062l2.738-.026c4.666-.017 9.047.12 13.637 1.088v1c-6.593.957-12.411.9-19 0l-2.188-.293c-1.606-.225-3.21-.461-4.812-.707v-1Z" style="fill:#d05bc2;fill-rule:nonzero"/><path d="M99 92h6c.934 3.01 1.044 3.867 0 7a99.222 99.222 0 0 1-5 0c-1-1-1-1-1.062-4.062L99 92Z" style="fill:#fee6fb;fill-rule:nonzero"/><path d="M155 86h2c.674 1.664 1.341 3.33 2 5l.836 1.867c2.075 4.893 2.353 7.944 1.164 13.133h-1l-.184-2.117-.254-2.758-.246-2.742c-.186-2.394-.186-2.394-1.316-4.383l-3 3V86Z" style="fill:#fed4f9;fill-rule:nonzero"/><path d="M161 99c2.727 5.453 2.897 10.253 1 16.062L161 117l-3-2 3-16Z" style="fill:#d96dc6;fill-rule:nonzero"/><path d="M131 64c2.938 1.5 2.938 1.5 5 3-3.75 2-3.75 2-6 2v-4c-4.824 1.269-4.824 1.269-8 5a75.305 75.305 0 0 0-1 5h-1c-.481-6.25-.481-6.25 1.562-9.438 3.37-2.16 5.5-2.046 9.438-1.562Z" style="fill:#fee2fd;fill-rule:nonzero"/><path d="M36 122c1.753.426 3.502.866 5.25 1.312l2.953.739c2.787.946 4.57 2.056 6.797 3.949-2.125-.141-4.25-.288-6.375-.438l-3.586-.246C38 127 38 127 36 126v-4Z" style="fill:#ec72cb;fill-rule:nonzero"/><path d="M14 111h3c.313 5.216-.149 8.566-3 13l-3 1 .938-2.5c1.181-3.891 1.644-7.462 2.062-11.5Z" style="fill:#16034f;fill-rule:nonzero"/><path d="M151 75c5.493 1.343 5.493 1.343 7.688 4.188L160 82l1.625 3.438c1.255 3.25 1.955 6.117 2.375 9.562-2.313-2.313-2.496-3.479-3.125-6.625l-.508-2.477L160 84h-2c-1.727-1.715-1.727-1.715-3.625-3.938l-1.914-2.214C151 76 151 76 151 75Z" style="fill:#68258c;fill-rule:nonzero"/><path d="m56.688 36.375 2.311.625v1h-5c.752 3.278.752 3.278 4 5l-2.437.625L53 45c-.898 3.053-.898 3.053-1 6l-3-2c1.322-3.3 2.642-6.6 4-10l-2-1c3-2 3-2 5.688-1.625Z" style="fill:#3c237d;fill-rule:nonzero"/><path d="M94 116c5.569.48 10.671 1.299 16 3v1h-9l1 2c-2.972-1.125-5.334-2.223-8-4v-2Z" style="fill:#fedcfa;fill-rule:nonzero"/><path d="M20 104h1l2 13-3 1v-2l-3 1 1-5h2v-8Z" style="fill:#5e248a;fill-rule:nonzero"/><path d="M105 147c-.506 2.169-1 4-2 6h5v1h-9c0-3 0-3 1.875-5.188C103 147 103 147 105 147Z" style="fill:#190158;fill-rule:nonzero"/><path d="M43 60c7.788.516 15.349 1.449 23 3v2l-2.273-.438c-11-2.426-11-2.426-21.727-.562l1-4Z" style="fill:#571f85;fill-rule:nonzero"/><path d="M15 97h1l2 16-1-2h-3l1-14Z" style="fill:#3b2c6a;fill-rule:nonzero"/><path d="M136 87v2l-7 1-3 9h-1c-.143-7.429-.143-7.429 1-11 3.38-1.04 6.478-1.08 10-1Z" style="fill:#ef8dcd;fill-rule:nonzero"/><path d="M70 67c1.316.45 2.627.91 3.938 1.375l2.214.773C78 70 78 70 79 72l-4-1v2l-5-1v-5Z" style="fill:#eb80d4;fill-rule:nonzero"/><path d="m45 63-1 3h-2l2 5h-6v-3h2l.375-1.938L41 64c2-1 2-1 4-1Z" style="fill:#f683d7;fill-rule:nonzero"/><path d="m49 47 1 2c-.672 1.91-.672 1.91-1.75 4.062l-1.047 2.161C46 57 46 57 43 58l-2-1v-2l4-1 .312-1.812c.777-2.47 1.759-3.511 3.688-5.188Z" style="fill:#180456;fill-rule:nonzero"/><path d="m50 36 4 1-2 1 1 3c-.938 3.188-.938 3.188-2 6h-1v-5h-2l2-6Z" style="fill:#1c0a52;fill-rule:nonzero"/><path d="M54 38h8l-3 1v3l5 1c-4.176 1.392-6.135-.177-10-2v-3Z" style="fill:#200b5e;fill-rule:nonzero"/><path d="M87 83c3 3 3 3 4 6a110.406 110.406 0 0 1-3 7h-1V83Z" style="fill:#731f87;fill-rule:nonzero"/><path d="m138 74 1 3c-3.901 2.786-7.385 4.681-12 6v-2a91.518 91.518 0 0 1 5.5-3.625l3.094-1.914L138 74Z" style="fill:#f599d9;fill-rule:nonzero"/><path d="m72 155 9 2v2c-6.055.195-6.055.195-8 0l-2-2 1-2Z" style="fill:#150449;fill-rule:nonzero"/><path d="M50 128h20l-3 3-3-1a239.848 239.848 0 0 0-7.188-.562l-3.855-.254L50 129v-1Z" style="fill:#de65c2;fill-rule:nonzero"/><path d="M160 45c2.946 4.419 3.099 6.678 3 12-2-2-2-2-3-5l-2-1 2-6Z" style="fill:#352763;fill-rule:nonzero"/><path d="M63 100h3l1 5-4 1a88.578 88.578 0 0 1-1-5l1-1Z" style="fill:#ffd6f8;fill-rule:nonzero"/><path d="M30 150c4.869.596 9.328 1.57 14 3v1c-4.161.082-7.947-.018-12-1v-2l-2-1Z" style="fill:#16024f;fill-rule:nonzero"/><path d="M164 95h1c1.851 5.141 2.215 7.955 0 13h-2l1-13Z" style="fill:#66248d;fill-rule:nonzero"/><path d="M161 91c2.603 2.712 2.995 3.891 3.188 7.75L164 102l-2 1c-.982-4.053-1.082-7.839-1-12Z" style="fill:#ed74d3;fill-rule:nonzero"/><path d="m71.188 124.375 1.811.625c-.328.99-.658 1.98-1 3h-9c6-4 6-4 8.188-3.625h.001Z" style="fill:#ee77cf;fill-rule:nonzero"/><path d="M40 99c2.062.438 2.062.438 4 1h-3c.344 2.473.344 2.473 1 5l2 1v2l-4-1c-.38-2.326-.714-4.66-1-7l1-1Z" style="fill:#fed9f9;fill-rule:nonzero"/><path d="M52 76a116.76 116.76 0 0 1 3.438 5.438C56.843 83.743 58.343 85.87 60 88c-3.593-.998-4.957-1.948-7.375-4.875C51 80 51 80 51.25 77.625L52 76Z" style="fill:#f49bd7;fill-rule:nonzero"/><path d="m76 119 2 3-4 4-3-2 5-5Z" style="fill:#e766c4;fill-rule:nonzero"/><path d="M31 119c2.5 1.312 2.5 1.312 5 3v3c-5.75-1.75-5.75-1.75-8-4h3v-2Z" style="fill:#d961c4;fill-rule:nonzero"/><path d="M85 104h1c.286 8.571.286 8.571-2 12l-3-3 1-2h2l-.062-2.938C84 105 84 105 85 104Z" style="fill:#f067d2;fill-rule:nonzero"/><path d="M88 93h2l-2 10-3-1 1-6h2v-3Z" style="fill:#f96ace;fill-rule:nonzero"/><path d="m27 77 2 1c-.6 3.683-1.248 7.345-2 11h-1a896.293 896.293 0 0 1-.062-5.438l-.036-3.058C26 78 26 78 27 77Z" style="fill:#f092d2;fill-rule:nonzero"/><path d="m100 72 2 4c-3.625 3-3.625 3-7 3 .812-1.938.812-1.938 2-4l3-1v-2Z" style="fill:#e070d2;fill-rule:nonzero"/><path d="M39 109h6v4h-5l-1-4Z" style="fill:#fc68cc;fill-rule:nonzero"/><path d="M175 86c2.503 2.938 3.469 5.179 4 9l-4-1v-8Z" style="fill:#3b2b66;fill-rule:nonzero"/><path d="M162 70c3 1 3 1 4 3h2l1 4h-4c-3-4.071-3-4.071-3-7Z" style="fill:#230e5d;fill-rule:nonzero"/><path d="M109 60h9v1c-1.412.534-2.83 1.052-4.25 1.562l-2.391.879c-2.55.604-3.912.406-6.359-.441l4-1v-2Z" style="fill:#cc65ca;fill-rule:nonzero"/><path d="M77 119a142.011 142.011 0 0 1-5 5h-2v-5c4.75-1.125 4.75-1.125 7 0Z" style="fill:#ffd5fa;fill-rule:nonzero"/><path d="M67 105h2c-1.152 2.468-2.048 4.048-4 6l-3-1 1-3h4v-2Z" style="fill:#fc68cc;fill-rule:nonzero"/><path d="M47 100h2c2.092 4.431 2.092 4.431 1.625 7.312L50 109l-4 1 2-1-1-9Z" style="fill:#f17bc8;fill-rule:nonzero"/><path d="M83 74c4.5 2.25 4.5 2.25 6 6h-2l-1 3-3-9Z" style="fill:#5e258e;fill-rule:nonzero"/><path d="M107 51h13l-2 1v2l-11-2v-1Z" style="fill:#190256;fill-rule:nonzero"/><path d="m96 119 7 4-2 2c-2.625-.375-2.625-.375-5-1v-5Z" style="fill:#ea7aca;fill-rule:nonzero"/><path d="M166 76c2.5 1.25 2.5 1.25 5 3v4a142.011 142.011 0 0 1-5-5v-2Z" style="fill:#1a0350;fill-rule:nonzero"/><path d="m40 56 5 1-1 3c-3.062 1.188-3.062 1.188-6 2l2-6Z" style="fill:#26135d;fill-rule:nonzero"/><path d="m82 117 1 4-2 2h-3v2l-2-1 6-7Z" style="fill:#571880;fill-rule:nonzero"/><path d="m31 70 3 1v2l-3 2c-.724 2.059-.724 2.059-1 4l-2-1c.628-2.929 1.586-5.361 3-8Z" style="fill:#cc7ab6;fill-rule:nonzero"/><path d="M66 65c5.415-.369 5.415-.369 8.375 1.5L76 68c-4.176 1.392-6.135-.177-10-2v-1Z" style="fill:#75319b;fill-rule:nonzero"/><path d="m124 126 12 1v1l-12 1v-3Z" style="fill:#e97ac6;fill-rule:nonzero"/><path d="m129 89 3 1-1.875 2.25c-1.729 2.238-2.986 4.187-4.125 6.75.75-6.625.75-6.625 3-10Z" style="fill:#fee2fb;fill-rule:nonzero"/></svg>